<svg width="475" height="388" viewBox="0 0 475 388" fill="none" xmlns="http://www.w3.org/2000/svg">
<g clip-path="url(#clip0_618_74522)">
<path d="M369.358 381.984C364.904 381.984 360.529 381.359 356.154 380.188L42.0919 292.375C29.5138 288.859 19.1232 280.656 12.7169 269.328C9.55385 263.746 7.53136 257.591 6.7669 251.22C6.00245 244.85 6.51127 238.391 8.2638 232.219L59.045 50.5C61.9663 40.2958 68.1259 31.318 76.5952 24.9202C85.0644 18.5225 95.3841 15.0517 105.998 15.0312C110.451 15.0312 114.826 15.6563 119.201 16.8281L222.873 45.8125C223.108 45.8906 223.342 45.8906 223.654 45.8906C224.592 45.8906 225.451 45.4219 225.92 44.6406L242.561 20.0313C248.42 11.3594 258.186 6.20312 268.654 6.20312C271.545 6.20312 274.436 6.59375 277.248 7.375L368.967 33.0781C375.357 34.8131 381.032 38.5318 385.174 43.6985C389.316 48.8652 391.711 55.2132 392.014 61.8281L393.498 91.2031C393.576 92.4531 394.358 93.4688 395.529 93.7813L433.186 104.328C445.764 107.844 456.154 116.047 462.561 127.375C465.724 132.957 467.746 139.112 468.511 145.483C469.275 151.853 468.766 158.312 467.014 164.484L416.233 346.203C410.451 367.297 391.154 381.984 369.358 381.984Z" fill="white"/>
<path d="M268.575 12.0616C270.918 12.0616 273.262 12.3741 275.606 13.0772L367.403 38.7022C372.606 40.1349 377.225 43.1705 380.605 47.3777C383.985 51.585 385.953 56.7501 386.231 62.1397L387.715 91.5928C387.795 93.3982 388.442 95.1324 389.564 96.549C390.686 97.9655 392.226 98.9924 393.965 99.4834L431.621 110.03C442.603 113.097 451.916 120.401 457.513 130.334C463.109 140.268 464.531 152.017 461.465 162.999L410.606 344.718C408.074 353.752 402.657 361.711 395.182 367.381C387.706 373.051 378.582 376.121 369.199 376.124C365.371 376.124 361.465 375.577 357.559 374.562L43.4964 286.749C32.515 283.682 23.2017 276.379 17.605 266.445C12.0083 256.512 10.5866 244.762 13.6526 233.78L64.512 52.0616C69.9026 33.1553 87.0901 20.8116 105.84 20.8116C109.668 20.8116 113.575 21.3585 117.481 22.3741L221.153 51.3584C221.934 51.5928 222.715 51.671 223.496 51.671C226.309 51.671 229.043 50.2647 230.606 47.8428L247.246 23.3116C252.168 16.1241 260.137 12.0616 268.575 12.0616ZM268.575 0.420948C256.153 0.420948 244.668 6.5147 237.715 16.8272L222.324 39.6397L120.84 11.2803C115.996 9.95219 111.075 9.24906 106.075 9.24906C94.3077 9.28238 82.8618 13.0886 73.4183 20.1084C63.7308 27.2959 56.8558 37.296 53.4964 48.9366V49.0147L2.63702 230.733C-5.48798 259.718 11.5433 289.952 40.5276 298.077L354.59 385.89C359.434 387.218 364.356 387.921 369.356 387.921C393.731 387.921 415.371 371.515 421.934 347.999L472.715 166.28C476.621 152.218 474.903 137.452 467.715 124.796C460.528 112.062 448.887 102.921 434.824 99.0147L399.278 89.0928L397.871 61.8272C397.489 53.991 394.639 46.4764 389.728 40.3583C384.816 34.2402 378.096 29.8321 370.528 27.7647L278.731 2.06158C275.462 0.947371 272.028 0.392707 268.575 0.420948Z" fill="#FB923C"/>
<path d="M361.936 58.3125C364.201 58.9375 365.764 60.8906 365.842 63.2344L367.326 92.6094C367.639 105.266 376.154 116.203 388.342 119.641L425.998 130.188C431.778 131.806 436.679 135.652 439.623 140.882C442.568 146.112 443.315 152.297 441.701 158.078L390.92 339.797C387.326 351.516 374.982 358.234 363.186 354.875L49.1231 267.063C43.3434 265.445 38.4426 261.598 35.498 256.368C32.5534 251.138 31.806 244.953 33.4199 239.172L84.2793 57.4531C85.9281 51.7214 89.7799 46.876 94.9921 43.9771C100.204 41.0781 106.353 40.3616 112.092 41.9844L215.764 70.9688C227.951 74.3281 240.92 69.4063 247.717 58.7812L264.123 34.7969C265.373 32.8438 267.795 31.9844 269.982 32.6094L361.936 58.3125Z" fill="#FB923C"/>
<path d="M280.155 142.129C315.991 152.139 336.906 189.308 326.894 225.138C316.883 260.969 279.708 281.88 243.872 271.871C208.036 261.861 187.121 224.692 197.132 188.862C207.271 153.095 244.319 132.247 280.155 142.129ZM284.618 126.127C239.919 113.631 193.562 139.707 181.127 184.399C168.629 229.091 194.709 275.441 239.409 287.873C284.108 300.369 330.465 274.293 342.9 229.601C355.334 184.973 329.254 138.687 284.618 126.127Z" fill="white"/>
<path d="M276.316 155.952C289.86 159.721 301.353 168.719 308.267 180.968C315.181 193.216 316.949 207.712 313.183 221.265C309.417 234.819 300.425 246.32 288.185 253.239C275.945 260.158 261.459 261.928 247.915 258.159C234.385 254.411 222.891 245.448 215.951 233.236C209.011 221.023 207.191 206.556 210.89 193.003C212.75 186.269 215.919 179.967 220.215 174.459C224.511 168.952 229.85 164.345 235.927 160.904C242.003 157.463 248.698 155.254 255.628 154.404C262.559 153.555 269.589 154.08 276.316 155.952Z" fill="white"/>
<rect x="110.984" y="65.6445" width="58" height="15" rx="7.5" transform="rotate(15.2289 110.984 65.6445)" fill="white"/>
</g>
<defs>
<clipPath id="clip0_618_74522">
<rect width="475" height="388" fill="white"/>
</clipPath>
</defs>
</svg>
